<?xml version="1.0" encoding="utf-8"?>
<!-- Generator: Adobe Illustrator 18.1.0, SVG Export Plug-In . SVG Version: 6.00 Build 0)  -->
<!DOCTYPE svg PUBLIC "-//W3C//DTD SVG 1.1//EN" "http://www.w3.org/Graphics/SVG/1.1/DTD/svg11.dtd">
<svg version="1.1" id="Layer_1" xmlns:inkpad="http://taptrix.com/inkpad/svg_extensions"
	 xmlns="http://www.w3.org/2000/svg" xmlns:xlink="http://www.w3.org/1999/xlink" x="0px" y="0px" viewBox="324.9 57.1 780 640"
	 enable-background="new 324.9 57.1 780 640" xml:space="preserve">
<g id="Layer" inkpad:layerName="Layer 3">
	<path fill="#ECE9E3" d="M324.9,57.1h780v640h-780V57.1z"/>
</g>
<g id="Layer_2" inkpad:layerName="Layer 4">
	<path display="none" fill="#FFFFFF" d="M374.7,96.3h684.5L717,678.2L374.7,96.3z"/>
</g>
<g id="Layer_3" inkpad:layerName="Layer 1">
	<path fill="#333333" d="M488,102.6h465.9l-232.9,396L488,102.6z"/>
</g>
<g id="Layer_4" inkpad:layerName="Layer 5">
	<path display="none" fill="#80C6FF" d="M430,108h576l-32,32H462L430,108z"/>
	<path display="none" fill="#FFF86B" d="M1025.3,132.7L732.7,628.8L721.4,585l260.1-441L1025.3,132.7z"/>
	<path display="none" fill="#68EA8E" d="M704.8,629.2L412.5,132.9l43.8,11.3l259.8,441.2L704.8,629.2z"/>
</g>
<g id="Layer_5" inkpad:layerName="Layer 5">
	<path fill="#80C6FF" d="M488,102.6h465.9l-29,47.3L488,102.6L488,102.6z"/>
	<path fill="#FF6666" d="M953.8,102.6l-232.9,396L697.6,452L953.8,102.6L953.8,102.6z"/>
	<path fill="#68EA8E" d="M720.9,498.6L488,102.6h46.6L720.9,498.6L720.9,498.6z"/>
</g>
<g id="Layer_6" inkpad:layerName="Layer 7">
	<path fill="#80C6FF" d="M488,102.6h465.9l-254.6,22.8L488,102.6L488,102.6z"/>
</g>
<g id="Layer_7" inkpad:layerName="Layer 2">
	
		<text transform="matrix(0.989 0.1478 -0.1478 0.989 603.2398 224.6888)" fill="#FFFFFF" font-family="'Avenir-Book'" font-size="82.2566">SVG</text>
	
		<text transform="matrix(0.9872 0.1594 -0.1594 0.9872 649.7341 290.445)" fill="#FFFFFF" font-family="'Avenir-Black'" font-size="52.4113">NOW</text>
</g>
<g id="Layer_8" inkpad:layerName="Layer 6">
	<path display="none" fill="#80C6FF" d="M462-116h96v96h-96V-116z"/>
	<path display="none" fill="#FFF86B" d="M558-116h96v96h-96V-116z"/>
	<path display="none" fill="#68EA8E" d="M654-116h96v96h-96V-116z"/>
	<path display="none" fill="#FF6666" d="M750-116h96v96h-96V-116z"/>
	<path display="none" fill="#333333" d="M846-116h96v96h-96V-116z"/>
</g>
<rect x="339.2" y="537.8" fill="none" width="751.7" height="169.3"/>
<text transform="matrix(1 0 0 1 369.4382 580.3898)"><tspan x="0" y="0" font-family="'MyriadPro-Regular'" font-size="60">The definitive </tspan><tspan x="354.1" y="0" font-family="'MyriadPro-Bold'" font-size="60">SVG </tspan><tspan x="477.7" y="0" font-family="'MyriadPro-Regular'" font-size="60">Exporter</tspan><tspan x="93.8" y="72" font-family="'MyriadPro-Regular'" font-size="60">for Adobe Illustrator</tspan></text>
</svg>
