<?xml version="1.0" encoding="utf-8"?>
<!-- Generator: Adobe Illustrator 18.1.0, SVG Export Plug-In . SVG Version: 6.00 Build 0)  -->
<!DOCTYPE svg PUBLIC "-//W3C//DTD SVG 1.1//EN" "http://www.w3.org/Graphics/SVG/1.1/DTD/svg11.dtd">
<svg version="1.1" id="Layer_1" xmlns:inkpad="http://taptrix.com/inkpad/svg_extensions"
	 xmlns="http://www.w3.org/2000/svg" xmlns:xlink="http://www.w3.org/1999/xlink" x="0px" y="0px" viewBox="364.9 27.1 700 700"
	 enable-background="new 364.9 27.1 700 700" xml:space="preserve">
<g id="Layer" inkpad:layerName="Layer 3" display="none">
	<path display="inline" fill="#ECE9E3" d="M206-116h1024V908H206V-116z"/>
</g>
<g id="Layer_2" inkpad:layerName="Layer 4">
	<path display="none" fill="#FFFFFF" d="M374.7,96.3h684.5L717,678.2L374.7,96.3z"/>
</g>
<g id="Layer_3" inkpad:layerName="Layer 1">
	<path fill="#333333" d="M398,108h640L718,652L398,108z"/>
</g>
<g id="Layer_4" inkpad:layerName="Layer 5">
	<path display="none" fill="#80C6FF" d="M430,108h576l-32,32H462L430,108z"/>
	<path display="none" fill="#FFF86B" d="M1025.3,132.7L732.7,628.8L721.4,585l260.1-441L1025.3,132.7z"/>
	<path display="none" fill="#68EA8E" d="M704.8,629.2L412.5,132.9l43.8,11.3l259.8,441.2L704.8,629.2z"/>
</g>
<g id="Layer_5" inkpad:layerName="Layer 5">
	<path fill="#80C6FF" d="M398,108h640l-39.8,64.9L398,108L398,108z"/>
	<path fill="#FF6666" d="M1038,108L718,652l-32-64L1038,108L1038,108z"/>
	<path fill="#68EA8E" d="M718,652L398,108h64L718,652L718,652z"/>
</g>
<g id="Layer_6" inkpad:layerName="Layer 7">
	<path fill="#80C6FF" d="M398,108h640l-349.8,31.3L398,108L398,108z"/>
</g>
<g id="Layer_7" inkpad:layerName="Layer 2">
	
		<text transform="matrix(0.989 0.1478 -0.1478 0.989 556.3703 275.7453)" fill="#FFFFFF" font-family="'Avenir-Book'" font-size="113">SVG</text>
	
		<text transform="matrix(0.9872 0.1594 -0.1594 0.9872 620.2391 366.0753)" fill="#FFFFFF" font-family="'Avenir-Black'" font-size="72">NOW</text>
</g>
<g id="Layer_8" inkpad:layerName="Layer 6">
	<path display="none" fill="#80C6FF" d="M462-116h96v96h-96V-116z"/>
	<path display="none" fill="#FFF86B" d="M558-116h96v96h-96V-116z"/>
	<path display="none" fill="#68EA8E" d="M654-116h96v96h-96V-116z"/>
	<path display="none" fill="#FF6666" d="M750-116h96v96h-96V-116z"/>
	<path display="none" fill="#333333" d="M846-116h96v96h-96V-116z"/>
</g>
</svg>
