<?xml version="1.0" encoding="utf-8"?>
<!-- Generator: Adobe Illustrator 18.1.0, SVG Export Plug-In . SVG Version: 6.00 Build 0)  -->
<!DOCTYPE svg PUBLIC "-//W3C//DTD SVG 1.1//EN" "http://www.w3.org/Graphics/SVG/1.1/DTD/svg11.dtd">
<svg version="1.1" id="Layer_1" xmlns:inkpad="http://taptrix.com/inkpad/svg_extensions"
	 xmlns="http://www.w3.org/2000/svg" xmlns:xlink="http://www.w3.org/1999/xlink" x="0px" y="0px" viewBox="0 0 612 525.8"
	 enable-background="new 0 0 612 525.8" xml:space="preserve">
<g id="Layer" inkpad:layerName="Layer 3" display="none">
	<path display="inline" fill="#ECE9E3" d="M226-8h895.3v895.3H226V-8z"/>
</g>
<g id="Layer_2" inkpad:layerName="Layer 4">
	<path display="none" fill="#FFFFFF" d="M373.5,177.6h598.4L672.7,686.3L373.5,177.6z"/>
</g>
<g id="Layer_3" inkpad:layerName="Layer 1">
	<path fill="#333333" d="M31.2,34h559.5L311,509.6L31.2,34z"/>
</g>
<g id="Layer_4" inkpad:layerName="Layer 5">
	<path display="none" fill="#80C6FF" d="M421.8,187.8h503.6l-28,28H449.8L421.8,187.8z"/>
	<path display="none" fill="#FFF86B" d="M942.3,209.4L686.5,643.2l-9.9-38.3L904,219.3L942.3,209.4z"/>
	<path display="none" fill="#68EA8E" d="M662.1,643.5L406.5,209.6l38.3,9.9l227.1,385.7L662.1,643.5z"/>
</g>
<g id="Layer_5" inkpad:layerName="Layer 5">
	<path fill="#80C6FF" d="M31.2,34h559.5l-34.8,56.7L31.2,34L31.2,34z"/>
	<path fill="#FF6666" d="M590.7,34L311,509.6l-28-56L590.7,34L590.7,34z"/>
	<path fill="#68EA8E" d="M311,509.6L31.2,34h56L311,509.6L311,509.6z"/>
</g>
<g id="Layer_6" inkpad:layerName="Layer 7">
	<path fill="#80C6FF" d="M31.2,34h559.5L284.9,61.3L31.2,34L31.2,34z"/>
</g>
<g id="Layer_7" inkpad:layerName="Layer 2">
	
		<text transform="matrix(0.989 0.1478 -0.1478 0.989 169.6636 180.6414)" fill="#FFFFFF" font-family="'Avenir-Book'" font-size="98.7926">SVG</text>
	
		<text transform="matrix(0.9872 0.1594 -0.1594 0.9872 225.5033 259.6159)" fill="#FFFFFF" font-family="'Avenir-Black'" font-size="62.9477">NOW</text>
</g>
<g id="Layer_8" inkpad:layerName="Layer 6">
	<path display="none" fill="#80C6FF" d="M449.8-8h83.9v83.9h-83.9V-8z"/>
	<path display="none" fill="#FFF86B" d="M533.7-8h83.9v83.9h-83.9V-8z"/>
	<path display="none" fill="#68EA8E" d="M617.7-8h83.9v83.9h-83.9V-8z"/>
	<path display="none" fill="#FF6666" d="M701.6-8h83.9v83.9h-83.9V-8z"/>
	<path display="none" fill="#333333" d="M785.5-8h83.9v83.9h-83.9V-8z"/>
</g>
</svg>
