<?xml version="1.0" encoding="utf-8"?>
<!-- Generator: Adobe Illustrator 18.1.0, SVG Export Plug-In . SVG Version: 6.00 Build 0)  -->
<!DOCTYPE svg PUBLIC "-//W3C//DTD SVG 1.1//EN" "http://www.w3.org/Graphics/SVG/1.1/DTD/svg11.dtd">
<svg version="1.1" xmlns="http://www.w3.org/2000/svg" xmlns:xlink="http://www.w3.org/1999/xlink" x="0px" y="0px"
	 viewBox="0 0 1024 1152" enable-background="new 0 0 1024 1152" xml:space="preserve">
<g id="bgd">
	<rect x="0" fill="#E3D2AF" width="1024" height="1152"/>
	<g>
		<rect x="265.3" y="1088" fill="none" width="454.4" height="25"/>
		<path d="M407.9,1104l-1.8-4.3h-8.9l-1.8,4.3h-0.9l6.7-16h0.9l6.7,16H407.9z M401.7,1088.9l-4.2,10.1h8.4L401.7,1088.9z"/>
		<path d="M411.4,1104v-11.6h0.7v2.1c1-1.4,2.3-2.3,4-2.3v0.9c-0.2,0-0.4,0-0.6,0c-1.2,0-2.9,1.2-3.4,2.3v8.7H411.4z"/>
		<path d="M418.8,1102v-8.9h-1.9v-0.6h1.9v-3.2h0.7v3.2h2.4v0.6h-2.4v8.9c0,1,0.4,1.7,1.2,1.7c0.6,0,1.1-0.3,1.4-0.6l0.4,0.6
			c-0.5,0.4-0.9,0.7-1.8,0.7C419.4,1104.3,418.8,1103.4,418.8,1102z"/>
		<path d="M431,1104v-16h0.7v6.4c0.9-1.4,2.4-2.3,4.2-2.3c3.1,0,5.2,2.4,5.2,6.1c0,3.7-2.1,6.1-5.2,6.1c-1.8,0-3.4-1-4.2-2.2v1.9
			H431z M435.9,1103.6c2.8,0,4.4-2.4,4.4-5.4c0-3-1.6-5.4-4.4-5.4c-1.8,0-3.5,1.1-4.2,2.4v6.2
			C432.5,1102.6,434.1,1103.6,435.9,1103.6z"/>
		<path d="M443.9,1107.9c0.3,0.1,0.7,0.2,1,0.2c0.8,0,1.3-0.3,1.8-1.6l1.1-2.4l-5-11.7h0.8l4.6,10.8l4.5-10.8h0.8l-6.1,14.3
			c-0.6,1.2-1.4,2-2.5,2c-0.4,0-0.9-0.1-1.2-0.2L443.9,1107.9z"/>
		<path d="M475.7,1104v-15.1l-6.2,15.1h-0.2l-6.2-15.1v15.1h-0.8v-16h1.2l5.9,14.3l5.9-14.3h1.2v16H475.7z"/>
		<path d="M480.3,1089.7c0-0.4,0.3-0.7,0.7-0.7c0.4,0,0.7,0.3,0.7,0.7s-0.3,0.7-0.7,0.7C480.6,1090.4,480.3,1090.1,480.3,1089.7z
			 M480.6,1104v-11.6h0.7v11.6H480.6z"/>
		<path d="M484.9,1098.2c0-3.3,2.1-6.1,5.5-6.1c1.9,0,3,0.7,4,1.9l-0.5,0.4c-0.9-1.3-2-1.7-3.4-1.7c-3,0-4.7,2.4-4.7,5.4
			s1.8,5.4,4.7,5.4c1.3,0,2.4-0.5,3.4-1.8l0.5,0.5c-1,1.2-2.1,1.9-4,1.9C487,1104.3,484.9,1101.5,484.9,1098.2z"/>
		<path d="M505.1,1104v-8.1c0-2.4-1.2-3.1-3-3.1c-1.6,0-3.3,1-4.1,2.2v9h-0.7v-16h0.7v6.2c0.9-1.1,2.6-2.1,4.2-2.1
			c2.3,0,3.6,1,3.6,3.7v8.1H505.1z"/>
		<path d="M517.5,1104v-1.4c-1.1,1.2-2.4,1.7-4,1.7c-2,0-4.1-1.4-4.1-3.9c0-2.5,2-3.9,4.1-3.9c1.6,0,2.9,0.5,4,1.7v-2.6
			c0-1.9-1.5-2.9-3.3-2.9c-1.5,0-2.6,0.5-3.7,1.8l-0.6-0.5c1.1-1.3,2.3-2,4.3-2c2.3,0,4,1.2,4,3.5v8.4H517.5z M517.5,1101.9v-2.9
			c-0.9-1.2-2.3-1.8-3.8-1.8c-2.1,0-3.5,1.4-3.5,3.2c0,1.8,1.3,3.2,3.5,3.2C515.2,1103.6,516.6,1103,517.5,1101.9z"/>
		<path d="M521.7,1098.2c0-3.4,2.3-6.1,5.4-6.1c3.6,0,5.4,2.9,5.4,6.1v0.2h-10c0.1,2.8,1.9,5.2,4.9,5.2c1.6,0,3-0.6,4-1.8l0.4,0.5
			c-1.2,1.2-2.5,1.9-4.5,1.9C524,1104.3,521.7,1101.7,521.7,1098.2z M527.1,1092.8c-3,0-4.5,2.7-4.6,5h9.2
			C531.8,1095.6,530.3,1092.8,527.1,1092.8z"/>
		<path d="M536,1104v-16h0.7v16H536z"/>
		<path d="M546.6,1096c0-4.9,3.6-8.3,8-8.3c2.3,0,4.2,0.9,5.6,2.5l-0.6,0.5c-1.1-1.4-3-2.3-5-2.3c-4,0-7.2,3-7.2,7.6
			c0,4.5,3.1,7.6,7.2,7.6c2,0,3.8-0.9,5-2.3l0.6,0.5c-1.5,1.7-3.3,2.5-5.6,2.5C550.2,1104.3,546.6,1100.9,546.6,1096z"/>
		<path d="M562.8,1089.7c0-0.4,0.3-0.7,0.7-0.7c0.4,0,0.7,0.3,0.7,0.7s-0.3,0.7-0.7,0.7C563.1,1090.4,562.8,1090.1,562.8,1089.7z
			 M563.1,1104v-11.6h0.7v11.6H563.1z"/>
		<path d="M575.8,1104v-8.1c0-2.4-1.2-3.1-3-3.1c-1.6,0-3.3,1-4.1,2.2v9H568v-11.6h0.7v1.8c0.9-1.1,2.6-2.1,4.2-2.1
			c2.3,0,3.6,1.1,3.6,3.8v8.1H575.8z"/>
		<path d="M588.1,1104v-1.4c-1.1,1.2-2.4,1.7-4,1.7c-2,0-4.1-1.4-4.1-3.9c0-2.5,2-3.9,4.1-3.9c1.6,0,2.9,0.5,4,1.7v-2.6
			c0-1.9-1.5-2.9-3.3-2.9c-1.5,0-2.6,0.5-3.7,1.8l-0.6-0.5c1.1-1.3,2.3-2,4.3-2c2.3,0,4,1.2,4,3.5v8.4H588.1z M588.1,1101.9v-2.9
			c-0.9-1.2-2.3-1.8-3.8-1.8c-2.1,0-3.5,1.4-3.5,3.2c0,1.8,1.3,3.2,3.5,3.2C585.8,1103.6,587.3,1103,588.1,1101.9z"/>
	</g>
</g>
<g id="Layer_1">
	<g>
		<g>
			<path fill="#303030" d="M754.7,450.1c-1.8-7.9-7-39-7-39l-64.4-215.2l-10.1-2.2H532.1V192H365.4v1.8h-23.1l-9.2,2.2l-67.9,213.3
				l-9.2,42.9c0,0,0,14,6.1,14s16.7,1.8,16.7,1.8l3.1,12.3h50.8v2.2h108.7v-2.2h287.9l4.4-12.3c0,0,19.3,1.3,21-3.5
				S756.4,458,754.7,450.1z"/>
			<g>
				<polygon fill="#FFFFFF" points="400.8,300.5 372.7,300.5 376.1,284.1 403.5,284.1 				"/>
				<polygon fill="#FFFFFF" points="437.4,300.5 409.3,300.5 411.8,284.1 439.2,284.1 				"/>
				<polygon fill="#FFFFFF" points="474,300.5 445.9,300.5 447.5,284.1 474.9,284.1 				"/>
				<polygon fill="#FFFFFF" points="510.6,300.5 482.5,300.5 483.2,284.1 510.6,284.1 				"/>
				<polygon fill="#FFFFFF" points="396.8,324 367.8,324 371.5,305.9 399.9,305.9 				"/>
				<polygon fill="#FFFFFF" points="434.8,324 405.7,324 408.5,305.9 436.8,305.9 				"/>
				<polygon fill="#FFFFFF" points="472.7,324 443.6,324 445.4,305.9 473.7,305.9 				"/>
				<polygon fill="#FFFFFF" points="510.6,324 481.5,324 482.3,305.9 510.6,305.9 				"/>
				<polygon fill="#FFFFFF" points="392.3,351.3 362.1,351.3 366.5,330.1 395.8,330.1 				"/>
				<polygon fill="#FFFFFF" points="431.8,351.3 401.5,351.3 404.8,330.1 434.1,330.1 				"/>
				<polygon fill="#FFFFFF" points="471.2,351.3 441,351.3 443,330.1 472.4,330.1 				"/>
				<polygon fill="#FFFFFF" points="510.6,351.3 480.4,351.3 481.3,330.1 510.6,330.1 				"/>
				<polygon fill="#FFFFFF" points="387,383.6 355.4,383.6 360.6,358.4 391.2,358.4 				"/>
				<polygon fill="#FFFFFF" points="428.2,383.6 396.6,383.6 400.5,358.4 431,358.4 				"/>
				<polygon fill="#FFFFFF" points="469.4,383.6 437.8,383.6 440.3,358.4 470.8,358.4 				"/>
				<polygon fill="#FFFFFF" points="510.6,383.6 479,383.6 480.1,358.4 510.6,358.4 				"/>
			</g>
			<polygon points="531.5,197.1 529.4,249.4 363.2,249.4 365,197.1 360,257.5 534.4,257.5 			"/>
			<polygon points="307.7,396.3 316.8,364.5 323.8,364.5 315.7,396.3 			"/>
			<g>
				<polygon points="569.4,198.2 545.5,198.2 545.4,197.1 569.3,197.1 				"/>
				<polygon points="569.7,200.8 545.8,200.8 545.7,199.7 569.6,199.7 				"/>
				<polygon points="570,203.4 546,203.4 545.9,202.3 569.9,202.3 				"/>
				<polygon points="570.3,206.1 546.2,206.1 546.1,204.9 570.2,204.9 				"/>
				<polygon points="570.6,208.7 546.4,208.7 546.3,207.5 570.5,207.5 				"/>
				<polygon points="570.9,211.4 546.6,211.4 546.5,210.2 570.8,210.2 				"/>
				<polygon points="600.5,198.2 576.6,198.2 576.5,197.1 600.4,197.1 				"/>
				<polygon points="600.9,200.8 576.9,200.8 576.8,199.7 600.7,199.7 				"/>
				<polygon points="601.3,203.4 577.2,203.4 577.1,202.3 601.1,202.3 				"/>
				<polygon points="601.7,206.1 577.6,206.1 577.4,204.9 601.5,204.9 				"/>
				<polygon points="602.1,208.7 577.9,208.7 577.7,207.5 601.9,207.5 				"/>
				<polygon points="602.5,211.4 578.2,211.4 578.1,210.2 602.3,210.2 				"/>
				<polygon points="631.6,198.2 607.7,198.2 607.5,197.1 631.4,197.1 				"/>
				<polygon points="632.1,200.8 608.1,200.8 607.9,199.7 631.9,199.7 				"/>
				<polygon points="632.6,203.4 608.5,203.4 608.3,202.3 632.4,202.3 				"/>
				<polygon points="633.1,206.1 608.9,206.1 608.8,204.9 632.9,204.9 				"/>
				<polygon points="633.6,208.7 609.4,208.7 609.2,207.5 633.4,207.5 				"/>
				<polygon points="634.1,211.4 609.8,211.4 609.6,210.2 633.9,210.2 				"/>
				<polygon points="662.7,198.2 638.8,198.2 638.6,197.1 662.4,197.1 				"/>
				<polygon points="663.3,200.8 639.3,200.8 639.1,199.7 663,199.7 				"/>
				<polygon points="663.9,203.4 639.8,203.4 639.6,202.3 663.6,202.3 				"/>
				<polygon points="664.5,206.1 640.3,206.1 640.1,204.9 664.2,204.9 				"/>
				<polygon points="665.1,208.7 640.8,208.7 640.6,207.5 664.8,207.5 				"/>
				<polygon points="665.6,211.4 641.4,211.4 641.1,210.2 665.4,210.2 				"/>
			</g>
			<rect x="395.8" y="262.8" fill="#FFFFFF" width="12.1" height="4.4"/>
			<rect x="425" y="262.8" fill="#FFFFFF" width="12.1" height="4.4"/>
			<rect x="454.1" y="262.8" fill="#FFFFFF" width="12.1" height="4.4"/>
			<rect x="483.2" y="262.8" fill="#FFFFFF" width="12.1" height="4.4"/>
			<g>
				<polygon fill="#FFFFFF" points="329.6,347.3 318.2,347.3 319.4,342.1 330.8,342.1 				"/>
				<g>
					<polygon fill="#FFFFFF" points="343.7,288.5 331.7,288.5 332.7,284.1 344.8,284.1 					"/>
					<polygon fill="#FFFFFF" points="340.7,301.3 328.8,301.3 329.7,297 341.7,297 					"/>
					<polygon fill="#FFFFFF" points="337.3,315.3 325.5,315.3 326.5,311.1 338.3,311.1 					"/>
					<polygon fill="#FFFFFF" points="333,332.9 321.5,332.9 322.7,327.7 334.3,327.7 					"/>
					<polygon fill="#FFFFFF" points="325.7,363.3 314.5,363.3 317.7,349.5 329,349.5 					"/>
				</g>
			</g>
			<g>
				<polygon fill="#FFFFFF" points="558.1,225.7 546.7,225.7 546.5,222.2 558,222.2 				"/>
				<polygon fill="#FFFFFF" points="575.5,225.7 564,225.7 563.8,222.2 575.2,222.2 				"/>
				<polygon fill="#FFFFFF" points="592.8,225.7 581.3,225.7 581,222.2 592.4,222.2 				"/>
				<polygon fill="#FFFFFF" points="558.7,236.5 547.1,236.5 547,232.9 558.5,232.9 				"/>
				<polygon fill="#FFFFFF" points="576.3,236.5 564.7,236.5 564.4,232.9 576,232.9 				"/>
				<polygon fill="#FFFFFF" points="593.9,236.5 582.2,236.5 581.9,232.9 593.5,232.9 				"/>
				<polygon fill="#FFFFFF" points="559.3,247.7 547.5,247.7 547.4,244 559.1,244 				"/>
				<polygon fill="#FFFFFF" points="577.2,247.7 565.4,247.7 565.1,244 576.9,244 				"/>
				<polygon fill="#FFFFFF" points="595,247.7 583.2,247.7 582.9,244 594.6,244 				"/>
				<polygon fill="#FFFFFF" points="560,259.1 548,259.1 547.8,255.3 559.8,255.3 				"/>
				<polygon fill="#FFFFFF" points="578.1,259.1 566.1,259.1 565.8,255.3 577.8,255.3 				"/>
				<polygon fill="#FFFFFF" points="596.1,259.1 584.2,259.1 583.8,255.3 595.8,255.3 				"/>
			</g>
			<rect x="558.7" y="273.3" fill="#FFFFFF" width="12.2" height="3.8"/>
			<rect x="577.7" y="273.3" fill="#FFFFFF" width="12.2" height="3.8"/>
			<g>
				<polygon fill="#FFFFFF" points="627.3,225.4 616.1,225.4 615.6,222.2 626.7,222.2 				"/>
				<polygon fill="#FFFFFF" points="645.4,225.4 634.2,225.4 633.6,222.2 644.7,222.2 				"/>
				<polygon fill="#FFFFFF" points="663.5,225.4 652.3,225.4 651.6,222.2 662.7,222.2 				"/>
				<polygon fill="#FFFFFF" points="629,235.7 617.5,235.7 617,232.2 628.4,232.2 				"/>
				<polygon fill="#FFFFFF" points="647.6,235.7 636.1,235.7 635.5,232.2 646.9,232.2 				"/>
				<polygon fill="#FFFFFF" points="666.3,235.7 654.8,235.7 653.9,232.2 665.3,232.2 				"/>
				<polygon fill="#FFFFFF" points="631,247.3 619.1,247.3 618.6,243.7 630.4,243.7 				"/>
				<polygon fill="#FFFFFF" points="650.2,247.3 638.3,247.3 637.6,243.7 649.4,243.7 				"/>
				<polygon fill="#FFFFFF" points="669.4,247.3 657.5,247.3 656.7,243.7 668.4,243.7 				"/>
				<polygon fill="#FFFFFF" points="633,259.3 620.8,259.3 620.3,255.4 632.4,255.4 				"/>
				<polygon fill="#FFFFFF" points="652.8,259.3 640.6,259.3 639.8,255.4 651.9,255.4 				"/>
				<polygon fill="#FFFFFF" points="672.6,259.3 660.3,259.3 659.4,255.4 671.5,255.4 				"/>
				<polygon fill="#FFFFFF" points="635.2,272 622.6,272 622,267.9 634.5,267.9 				"/>
				<polygon fill="#FFFFFF" points="655.6,272 643,272 642.2,267.9 654.7,267.9 				"/>
				<polygon fill="#FFFFFF" points="675.9,272 663.4,272 662.4,267.9 674.9,267.9 				"/>
			</g>
			<g>
				<polygon fill="#FFFFFF" points="641.8,297.7 627.9,297.7 627.5,293.1 641.2,293.1 				"/>
				<polygon fill="#FFFFFF" points="680.9,297.7 667,297.7 666,293.1 679.8,293.1 				"/>
				<polygon fill="#FFFFFF" points="658.1,289.4 645.4,289.4 644.7,284.1 657.1,284.1 				"/>
				<polygon fill="#FFFFFF" points="661.5,308.4 648.2,308.4 647.3,302.5 660.4,302.5 				"/>
			</g>
			<g>
				<polygon fill="#FFFFFF" points="584.7,331.8 563.2,331.8 562.5,324 583.8,324 				"/>
				<polygon fill="#FFFFFF" points="611.3,331.8 589.7,331.8 588.7,324 610.1,324 				"/>
				<polygon fill="#FFFFFF" points="637.9,331.8 616.3,331.8 615,324 636.4,324 				"/>
				<polygon fill="#FFFFFF" points="664.5,331.8 642.9,331.8 641.3,324 662.7,324 				"/>
				<polygon fill="#FFFFFF" points="691,331.8 669.5,331.8 667.6,324 689,324 				"/>
				<polygon fill="#FFFFFF" points="587.7,355.8 565.4,355.8 564.6,347.5 586.6,347.5 				"/>
				<polygon fill="#FFFFFF" points="615.1,355.8 592.8,355.8 591.8,347.5 613.8,347.5 				"/>
				<polygon fill="#FFFFFF" points="642.6,355.8 620.3,355.8 618.9,347.5 641,347.5 				"/>
				<polygon fill="#FFFFFF" points="670,355.8 647.8,355.8 646.1,347.5 668.1,347.5 				"/>
				<polygon fill="#FFFFFF" points="697.5,355.8 675.2,355.8 673.2,347.5 695.3,347.5 				"/>
				<polygon fill="#FFFFFF" points="590.8,381.4 567.7,381.4 566.9,372.6 589.7,372.6 				"/>
				<polygon fill="#FFFFFF" points="619.2,381.4 596.1,381.4 595,372.6 617.8,372.6 				"/>
				<polygon fill="#FFFFFF" points="647.6,381.4 624.6,381.4 623.1,372.6 645.9,372.6 				"/>
				<polygon fill="#FFFFFF" points="676,381.4 653,381.4 651.2,372.6 673.9,372.6 				"/>
				<polygon fill="#FFFFFF" points="704.4,381.4 681.4,381.4 679.2,372.6 702,372.6 				"/>
			</g>
			<ellipse cx="342.2" cy="253" rx="5.3" ry="2.5"/>
			<ellipse cx="346" cy="237.5" rx="9.1" ry="4.2"/>
			<ellipse cx="350.8" cy="221.2" rx="9.1" ry="4.2"/>
			<path d="M341.2,226.9v10c0,2.8,9.8,2.8,9.8,0v-10H341.2z"/>
			<ellipse fill="#FF0000" cx="346.1" cy="226.9" rx="4.9" ry="2.6"/>
			<path d="M345.9,211v10c0,2.8,9.8,2.8,9.8,0v-10H345.9z"/>
			<ellipse fill="#FFFFFF" cx="350.8" cy="211" rx="4.9" ry="2.6"/>
			<polygon points="734.4,405.3 278.8,405.3 278.8,404.8 733.8,404.8 673.3,197.1 673.7,197 			"/>
			
				<rect x="310.7" y="193.1" transform="matrix(0.9567 0.2912 -0.2912 0.9567 99.9523 -77.6581)" fill="#FFFFFF" width="0.4" height="207.7"/>
			<rect x="287.6" y="464.4" fill="#FFFFFF" width="439.1" height="0.4"/>
			<path fill="#C0C0C0" d="M564.5,287.7l-0.5,11.8c0,7,5.7,10.9,13.6,10.9c10.6,0,14.2-5.8,14.2-10.7c0-5.6,0-12,0-12H564.5z"/>
			<ellipse fill="#FFFFFF" cx="578.2" cy="287.7" rx="13.7" ry="8.9"/>
			<polygon points="367.8,243.7 526.2,243.7 526.2,202.3 370.8,202.3 			"/>
			<polygon fill="#00FFFF" points="396.6,237.1 398.6,214.6 498.5,214.6 498.5,237.1 			"/>
		</g>
	</g>
	<g>
		<g>
			<path fill="#EBEBEB" d="M759.3,565.8H276.7c-4.8,0-8.7,3.9-8.7,8.7v379.1c0,4.8,3.9,8.7,8.7,8.7h482.6c4.8,0,8.7-3.9,8.7-8.7
				V574.5C768,569.6,764.1,565.8,759.3,565.8z"/>
			<rect x="685.2" y="769.2" fill="#D0D0CF" width="36.7" height="152.1"/>
			<rect x="701.1" y="773.8" fill="#E7E3E1" width="4.9" height="143"/>
			<circle fill="#E7E3E1" cx="677.9" cy="672.5" r="62.3"/>
			<circle fill="#444343" cx="677.9" cy="672.5" r="42.5"/>
			<circle fill="#444343" cx="722.7" cy="672" r="13.3"/>
			<circle fill="#E2E3E4" stroke="#FFFFFF" stroke-width="0.4469" stroke-miterlimit="10" cx="323.1" cy="615.5" r="20"/>
			<g>
				<rect x="686.3" y="844.3" fill="#00A651" width="34.4" height="1.7"/>
				<rect x="686.3" y="838.1" fill="#B9B9BD" width="34.4" height="6.3"/>
				<rect x="686.3" y="831.8" fill="#A3A4A8" width="34.4" height="6.3"/>
				<rect x="686.3" y="846.2" fill="#B9B9BD" width="34.4" height="6.3"/>
				<rect x="686.3" y="852.4" fill="#A3A4A8" width="34.4" height="6.3"/>
			</g>
			<g>
				<g>
					<path fill="#C0C1C1" d="M329.9,902c-9.8-9.8-25.7-9.8-35.5,0l35.5,35.5C339.6,927.8,339.6,911.8,329.9,902z"/>
					<path fill="#D0D0CF" d="M294.4,937.5c9.8,9.8,25.7,9.8,35.5,0L294.4,902C284.6,911.8,284.6,927.8,294.4,937.5z"/>
					<path fill="#BABABA" d="M294.4,937.5c-9.8-9.8-9.8-25.7,0-35.5l-1.3-1.3c-10.5,10.5-10.5,27.6,0,38.2
						c10.5,10.6,27.6,10.5,38.2,0l-1.3-1.3C320.1,947.3,304.1,947.3,294.4,937.5z"/>
					<path fill="#B6B7B8" d="M293,900.8l1.3,1.3c9.8-9.8,25.7-9.8,35.5,0c9.8,9.8,9.8,25.7,0,35.5l1.3,1.3
						c10.5-10.5,10.5-27.6,0-38.2C320.7,890.2,303.5,890.2,293,900.8z"/>
				</g>
				<path fill="none" stroke="#DBD8D6" stroke-width="0.9879" stroke-miterlimit="10" d="M328.7,919.8c0,9.2-7.4,16.6-16.6,16.6
					c-9.2,0-16.6-7.4-16.6-16.6s7.4-16.6,16.6-16.6"/>
			</g>
			<g>
				<path fill="#DBD8D6" d="M359.2,873.5c-61.2-61.2-61.2-160.3,0-221.5L346,638.8c-68.5,68.5-68.5,179.5,0,248s179.5,68.5,248,0
					l-13.3-13.3C519.5,934.7,420.4,934.7,359.2,873.5z"/>
				<path fill="#E7E3E1" d="M346,638.8l13.2,13.3c61.2-61.2,160.3-61.2,221.5,0s61.2,160.3,0,221.5l13.3,13.3
					c68.5-68.5,68.5-179.5,0-248S414.4,570.2,346,638.8z"/>
				<path fill="#1B1B1B" d="M507.2,725.5c20.6,20.6,20.6,54,0,74.6l73.4,73.4c61.2-61.2,61.2-160.3,0-221.5s-160.3-61.2-221.5,0
					l73.4,73.4C453.2,704.8,486.6,704.8,507.2,725.5z"/>
				<path fill="#272727" d="M359.2,873.5c61.2,61.2,160.3,61.2,221.5,0L507.2,800c-20.6,20.6-54,20.6-74.6,0
					c-20.6-20.6-20.6-54,0-74.6L359.2,652C298.1,713.2,298.1,812.3,359.2,873.5z"/>
				<path fill="#EE273E" d="M466.7,766c-1.8-1.8-1.8-4.6,0-6.4l-34.1-34.1c-20.6,20.6-20.6,54,0,74.6c20.6,20.6,54,20.6,74.6,0
					L473.1,766C471.4,767.7,468.5,767.7,466.7,766z"/>
				<path fill="#D82238" d="M507.2,725.5c-20.6-20.6-54-20.6-74.6,0l34.1,34.1c1.8-1.8,4.6-1.8,6.4,0s1.8,4.6,0,6.4l34.1,34.1
					C527.8,779.5,527.8,746,507.2,725.5z"/>
				<path fill="#DBDBDC" d="M473.1,759.5c-1.8-1.8-4.6-1.8-6.4,0l6.4,6.4C474.9,764.2,474.9,761.3,473.1,759.5z"/>
				<path fill="#F1F1F1" d="M466.7,766c1.8,1.8,4.6,1.8,6.4,0l-6.4-6.4C465,761.3,465,764.2,466.7,766z"/>
			</g>
			<g>
				<polygon fill="#F59D21" points="520.2,864.2 513.4,858.3 515.7,851.5 526.6,860.8 				"/>
				
					<rect x="713.7" y="612" transform="matrix(0.7599 0.65 -0.65 0.7599 578.1313 -318.5155)" fill="#747575" width="13.1" height="22.8"/>
				
					<rect x="688.8" y="646.3" transform="matrix(0.7599 0.65 -0.65 0.7599 591.1548 -295.2781)" fill="#686868" width="13.1" height="12.6"/>
				
					<rect x="679.5" y="655.5" transform="matrix(0.7599 0.65 -0.65 0.7599 595.0286 -288.2551)" fill="#8F8F8F" width="16.5" height="11.8"/>
				
					<rect x="666.8" y="662.4" transform="matrix(0.7599 0.65 -0.65 0.7599 601.899 -275.9694)" fill="#797979" width="15.5" height="28.8"/>
				<polygon fill="#8D8D8D" points="661.7,702 651.6,693.3 659.3,682.8 671.1,692.8 				"/>
				
					<rect x="602.9" y="680.3" transform="matrix(0.7599 0.65 -0.65 0.7599 635.7637 -215.3445)" fill="#C8C8C8" width="13.1" height="145.3"/>
				
					<rect x="549.2" y="806.3" transform="matrix(0.7599 0.65 -0.65 0.7599 662.9063 -166.753)" fill="#969696" width="16" height="15.4"/>
				
					<rect x="522.7" y="814" transform="matrix(0.7599 0.65 -0.65 0.7599 673.8206 -147.3073)" fill="#C8C8C8" width="27.2" height="49"/>
				
					<rect x="539.1" y="849.9" transform="matrix(0.7599 0.65 -0.65 0.7599 686.3997 -153.4695)" fill="#C8C8C8" width="23.8" height="5.2"/>
				<rect x="695.2" y="620.5" transform="matrix(0.7599 0.65 -0.65 0.7599 583.0848 -309.646)" width="31" height="28"/>
				<polygon fill="#222222" points="705.5,656.2 690.2,643 689.8,635.1 713.4,655.2 				"/>
			</g>
			<circle fill="#DDDBDB" cx="677.9" cy="672.5" r="6"/>
		</g>
	</g>
	<g>
	</g>
</g>
</svg>
