<svg xmlns="http://www.w3.org/2000/svg" viewBox="0 0 1024 1152" enable-background="new 0 0 1024 1152"><g><path fill="#E3D2AF" d="M0 0h1024v1152H0z"/><path fill="none" d="M265.3 1088h454.4v25H265.3z"/><path d="M407.9 1104l-1.8-4.3h-8.9l-1.8 4.3h-.9l6.7-16h.9l6.7 16h-.9zm-6.2-15.1l-4.2 10.1h8.4l-4.2-10.1zM411.4 1104v-11.6h.7v2.1c1-1.4 2.3-2.3 4-2.3v.9h-.6c-1.2 0-2.9 1.2-3.4 2.3v8.7h-.7zM418.8 1102v-8.9h-1.9v-.6h1.9v-3.2h.7v3.2h2.4v.6h-2.4v8.9c0 1 .4 1.7 1.2 1.7.6 0 1.1-.3 1.4-.6l.4.6c-.5.4-.9.7-1.8.7-1.3-.1-1.9-1-1.9-2.4zM431 1104v-16h.7v6.4c.9-1.4 2.4-2.3 4.2-2.3 3.1 0 5.2 2.4 5.2 6.1 0 3.7-2.1 6.1-5.2 6.1-1.8 0-3.4-1-4.2-2.2v1.9h-.7zm4.9-.4c2.8 0 4.4-2.4 4.4-5.4 0-3-1.6-5.4-4.4-5.4-1.8 0-3.5 1.1-4.2 2.4v6.2c.8 1.2 2.4 2.2 4.2 2.2zM443.9 1107.9c.3.1.7.2 1 .2.8 0 1.3-.3 1.8-1.6l1.1-2.4-5-11.7h.8l4.6 10.8 4.5-10.8h.8l-6.1 14.3c-.6 1.2-1.4 2-2.5 2-.4 0-.9-.1-1.2-.2l.2-.6zM475.7 1104v-15.1l-6.2 15.1h-.2l-6.2-15.1v15.1h-.8v-16h1.2l5.9 14.3 5.9-14.3h1.2v16h-.8zM480.3 1089.7c0-.4.3-.7.7-.7.4 0 .7.3.7.7s-.3.7-.7.7c-.4 0-.7-.3-.7-.7zm.3 14.3v-11.6h.7v11.6h-.7zM484.9 1098.2c0-3.3 2.1-6.1 5.5-6.1 1.9 0 3 .7 4 1.9l-.5.4c-.9-1.3-2-1.7-3.4-1.7-3 0-4.7 2.4-4.7 5.4s1.8 5.4 4.7 5.4c1.3 0 2.4-.5 3.4-1.8l.5.5c-1 1.2-2.1 1.9-4 1.9-3.4.2-5.5-2.6-5.5-5.9zM505.1 1104v-8.1c0-2.4-1.2-3.1-3-3.1-1.6 0-3.3 1-4.1 2.2v9h-.7v-16h.7v6.2c.9-1.1 2.6-2.1 4.2-2.1 2.3 0 3.6 1 3.6 3.7v8.1h-.7zM517.5 1104v-1.4c-1.1 1.2-2.4 1.7-4 1.7-2 0-4.1-1.4-4.1-3.9s2-3.9 4.1-3.9c1.6 0 2.9.5 4 1.7v-2.6c0-1.9-1.5-2.9-3.3-2.9-1.5 0-2.6.5-3.7 1.8l-.6-.5c1.1-1.3 2.3-2 4.3-2 2.3 0 4 1.2 4 3.5v8.4h-.7zm0-2.1v-2.9c-.9-1.2-2.3-1.8-3.8-1.8-2.1 0-3.5 1.4-3.5 3.2 0 1.8 1.3 3.2 3.5 3.2 1.5 0 2.9-.6 3.8-1.7zM521.7 1098.2c0-3.4 2.3-6.1 5.4-6.1 3.6 0 5.4 2.9 5.4 6.1v.2h-10c.1 2.8 1.9 5.2 4.9 5.2 1.6 0 3-.6 4-1.8l.4.5c-1.2 1.2-2.5 1.9-4.5 1.9-3.3.1-5.6-2.5-5.6-6zm5.4-5.4c-3 0-4.5 2.7-4.6 5h9.2c.1-2.2-1.4-5-4.6-5zM536 1104v-16h.7v16h-.7zM546.6 1096c0-4.9 3.6-8.3 8-8.3 2.3 0 4.2.9 5.6 2.5l-.6.5c-1.1-1.4-3-2.3-5-2.3-4 0-7.2 3-7.2 7.6 0 4.5 3.1 7.6 7.2 7.6 2 0 3.8-.9 5-2.3l.6.5c-1.5 1.7-3.3 2.5-5.6 2.5-4.4 0-8-3.4-8-8.3zM562.8 1089.7c0-.4.3-.7.7-.7.4 0 .7.3.7.7s-.3.7-.7.7c-.4 0-.7-.3-.7-.7zm.3 14.3v-11.6h.7v11.6h-.7zM575.8 1104v-8.1c0-2.4-1.2-3.1-3-3.1-1.6 0-3.3 1-4.1 2.2v9h-.7v-11.6h.7v1.8c.9-1.1 2.6-2.1 4.2-2.1 2.3 0 3.6 1.1 3.6 3.8v8.1h-.7zM588.1 1104v-1.4c-1.1 1.2-2.4 1.7-4 1.7-2 0-4.1-1.4-4.1-3.9s2-3.9 4.1-3.9c1.6 0 2.9.5 4 1.7v-2.6c0-1.9-1.5-2.9-3.3-2.9-1.5 0-2.6.5-3.7 1.8l-.6-.5c1.1-1.3 2.3-2 4.3-2 2.3 0 4 1.2 4 3.5v8.4h-.7zm0-2.1v-2.9c-.9-1.2-2.3-1.8-3.8-1.8-2.1 0-3.5 1.4-3.5 3.2 0 1.8 1.3 3.2 3.5 3.2 1.5 0 3-.6 3.8-1.7z"/></g><g><path fill="#303030" d="M754.7 450.1c-1.8-7.9-7-39-7-39l-64.4-215.2-10.1-2.2H532.1V192H365.4v1.8h-23.1l-9.2 2.2-67.9 213.3-9.2 42.9s0 14 6.1 14 16.7 1.8 16.7 1.8l3.1 12.3h50.8v2.2h108.7v-2.2h287.9l4.4-12.3s19.3 1.3 21-3.5 1.7-6.5 0-14.4z"/><g fill="#fff"><path d="M400.8 300.5h-28.1l3.4-16.4h27.4zM437.4 300.5h-28.1l2.5-16.4h27.4zM474 300.5h-28.1l1.6-16.4h27.4zM510.6 300.5h-28.1l.7-16.4h27.4zM396.8 324h-29l3.7-18.1h28.4zM434.8 324h-29.1l2.8-18.1h28.3zM472.7 324h-29.1l1.8-18.1h28.3zM510.6 324h-29.1l.8-18.1h28.3zM392.3 351.3h-30.2l4.4-21.2h29.3zM431.8 351.3h-30.3l3.3-21.2h29.3zM471.2 351.3H441l2-21.2h29.4zM510.6 351.3h-30.2l.9-21.2h29.3zM387 383.6h-31.6l5.2-25.2h30.6zM428.2 383.6h-31.6l3.9-25.2H431zM469.4 383.6h-31.6l2.5-25.2h30.5zM510.6 383.6H479l1.1-25.2h30.5z"/></g><path d="M531.5 197.1l-2.1 52.3H363.2l1.8-52.3-5 60.4h174.4zM307.7 396.3l9.1-31.8h7l-8.1 31.8zM569.4 198.2h-23.9l-.1-1.1h23.9zM569.7 200.8h-23.9l-.1-1.1h23.9zM570 203.4h-24l-.1-1.1h24zM570.3 206.1h-24.1l-.1-1.2h24.1zM570.6 208.7h-24.2l-.1-1.2h24.2zM570.9 211.4h-24.3l-.1-1.2h24.3zM600.5 198.2h-23.9l-.1-1.1h23.9zM600.9 200.8h-24l-.1-1.1h23.9zM601.3 203.4h-24.1l-.1-1.1h24zM601.7 206.1h-24.1l-.2-1.2h24.1zM602.1 208.7h-24.2l-.2-1.2h24.2zM602.5 211.4h-24.3l-.1-1.2h24.2zM631.6 198.2h-23.9l-.2-1.1h23.9zM632.1 200.8h-24l-.2-1.1h24zM632.6 203.4h-24.1l-.2-1.1h24.1zM633.1 206.1h-24.2l-.1-1.2h24.1zM633.6 208.7h-24.2l-.2-1.2h24.2zM634.1 211.4h-24.3l-.2-1.2h24.3zM662.7 198.2h-23.9l-.2-1.1h23.8zM663.3 200.8h-24l-.2-1.1H663zM663.9 203.4h-24.1l-.2-1.1h24zM664.5 206.1h-24.2l-.2-1.2h24.1zM665.1 208.7h-24.3l-.2-1.2h24.2zM665.6 211.4h-24.2l-.3-1.2h24.3z"/><path fill="#fff" d="M395.8 262.8h12.1v4.4h-12.1zM425 262.8h12.1v4.4H425zM454.1 262.8h12.1v4.4h-12.1zM483.2 262.8h12.1v4.4h-12.1z"/><g fill="#fff"><path d="M329.6 347.3h-11.4l1.2-5.2h11.4zM343.7 288.5h-12l1-4.4h12.1zM340.7 301.3h-11.9l.9-4.3h12zM337.3 315.3h-11.8l1-4.2h11.8zM333 332.9h-11.5l1.2-5.2h11.6zM325.7 363.3h-11.2l3.2-13.8H329z"/></g><g fill="#fff"><path d="M558.1 225.7h-11.4l-.2-3.5H558zM575.5 225.7H564l-.2-3.5h11.4zM592.8 225.7h-11.5l-.3-3.5h11.4zM558.7 236.5h-11.6l-.1-3.6h11.5zM576.3 236.5h-11.6l-.3-3.6H576zM593.9 236.5h-11.7l-.3-3.6h11.6zM559.3 247.7h-11.8l-.1-3.7h11.7zM577.2 247.7h-11.8l-.3-3.7h11.8zM595 247.7h-11.8l-.3-3.7h11.7zM560 259.1h-12l-.2-3.8h12zM578.1 259.1h-12l-.3-3.8h12zM596.1 259.1h-11.9l-.4-3.8h12z"/></g><path fill="#fff" d="M558.7 273.3h12.2v3.8h-12.2zM577.7 273.3h12.2v3.8h-12.2z"/><g fill="#fff"><path d="M627.3 225.4h-11.2l-.5-3.2h11.1zM645.4 225.4h-11.2l-.6-3.2h11.1zM663.5 225.4h-11.2l-.7-3.2h11.1zM629 235.7h-11.5l-.5-3.5h11.4zM647.6 235.7h-11.5l-.6-3.5h11.4zM666.3 235.7h-11.5l-.9-3.5h11.4zM631 247.3h-11.9l-.5-3.6h11.8zM650.2 247.3h-11.9l-.7-3.6h11.8zM669.4 247.3h-11.9l-.8-3.6h11.7zM633 259.3h-12.2l-.5-3.9h12.1zM652.8 259.3h-12.2l-.8-3.9h12.1zM672.6 259.3h-12.3l-.9-3.9h12.1zM635.2 272h-12.6l-.6-4.1h12.5zM655.6 272H643l-.8-4.1h12.5zM675.9 272h-12.5l-1-4.1h12.5z"/></g><g fill="#fff"><path d="M641.8 297.7h-13.9l-.4-4.6h13.7zM680.9 297.7H667l-1-4.6h13.8zM658.1 289.4h-12.7l-.7-5.3h12.4zM661.5 308.4h-13.3l-.9-5.9h13.1z"/></g><g fill="#fff"><path d="M584.7 331.8h-21.5l-.7-7.8h21.3zM611.3 331.8h-21.6l-1-7.8h21.4zM637.9 331.8h-21.6L615 324h21.4zM664.5 331.8h-21.6l-1.6-7.8h21.4zM691 331.8h-21.5l-1.9-7.8H689zM587.7 355.8h-22.3l-.8-8.3h22zM615.1 355.8h-22.3l-1-8.3h22zM642.6 355.8h-22.3l-1.4-8.3H641zM670 355.8h-22.2l-1.7-8.3h22zM697.5 355.8h-22.3l-2-8.3h22.1zM590.8 381.4h-23.1l-.8-8.8h22.8zM619.2 381.4h-23.1l-1.1-8.8h22.8zM647.6 381.4h-23l-1.5-8.8h22.8zM676 381.4h-23l-1.8-8.8h22.7zM704.4 381.4h-23l-2.2-8.8H702z"/></g><ellipse cx="342.2" cy="253" rx="5.3" ry="2.5"/><ellipse cx="346" cy="237.5" rx="9.1" ry="4.2"/><ellipse cx="350.8" cy="221.2" rx="9.1" ry="4.2"/><path d="M341.2 226.9v10c0 2.8 9.8 2.8 9.8 0v-10h-9.8z"/><ellipse fill="#f00" cx="346.1" cy="226.9" rx="4.9" ry="2.6"/><path d="M345.9 211v10c0 2.8 9.8 2.8 9.8 0v-10h-9.8z"/><ellipse fill="#fff" cx="350.8" cy="211" rx="4.9" ry="2.6"/><path d="M734.4 405.3H278.8v-.5h455l-60.5-207.7.4-.1z"/><path fill="#fff" d="M340.968 197.557l.383.116-60.48 198.707-.384-.117zM287.6 464.4h439.1v.4H287.6z"/><path fill="#C0C0C0" d="M564.5 287.7l-.5 11.8c0 7 5.7 10.9 13.6 10.9 10.6 0 14.2-5.8 14.2-10.7v-12h-27.3z"/><ellipse fill="#fff" cx="578.2" cy="287.7" rx="13.7" ry="8.9"/><path d="M367.8 243.7h158.4v-41.4H370.8z"/><path fill="#0ff" d="M396.6 237.1l2-22.5h99.9v22.5z"/><path fill="#EBEBEB" d="M759.3 565.8H276.7c-4.8 0-8.7 3.9-8.7 8.7v379.1c0 4.8 3.9 8.7 8.7 8.7h482.6c4.8 0 8.7-3.9 8.7-8.7V574.5c0-4.9-3.9-8.7-8.7-8.7z"/><path fill="#D0D0CF" d="M685.2 769.2h36.7v152.1h-36.7z"/><path fill="#E7E3E1" d="M701.1 773.8h4.9v143h-4.9z"/><circle fill="#E7E3E1" cx="677.9" cy="672.5" r="62.3"/><circle fill="#444343" cx="677.9" cy="672.5" r="42.5"/><circle fill="#444343" cx="722.7" cy="672" r="13.3"/><circle fill="#E2E3E4" stroke="#fff" stroke-width=".447" stroke-miterlimit="10" cx="323.1" cy="615.5" r="20"/><path fill="#00A651" d="M686.3 844.3h34.4v1.7h-34.4z"/><path fill="#B9B9BD" d="M686.3 838.1h34.4v6.3h-34.4z"/><path fill="#A3A4A8" d="M686.3 831.8h34.4v6.3h-34.4z"/><path fill="#B9B9BD" d="M686.3 846.2h34.4v6.3h-34.4z"/><path fill="#A3A4A8" d="M686.3 852.4h34.4v6.3h-34.4z"/><path fill="#C0C1C1" d="M329.9 902c-9.8-9.8-25.7-9.8-35.5 0l35.5 35.5c9.7-9.7 9.7-25.7 0-35.5z"/><path fill="#D0D0CF" d="M294.4 937.5c9.8 9.8 25.7 9.8 35.5 0L294.4 902c-9.8 9.8-9.8 25.8 0 35.5z"/><path fill="#BABABA" d="M294.4 937.5c-9.8-9.8-9.8-25.7 0-35.5l-1.3-1.3c-10.5 10.5-10.5 27.6 0 38.2 10.5 10.6 27.6 10.5 38.2 0l-1.3-1.3c-9.9 9.7-25.9 9.7-35.6-.1z"/><path fill="#B6B7B8" d="M293 900.8l1.3 1.3c9.8-9.8 25.7-9.8 35.5 0s9.8 25.7 0 35.5l1.3 1.3c10.5-10.5 10.5-27.6 0-38.2-10.4-10.5-27.6-10.5-38.1.1z"/><path stroke="#DBD8D6" stroke-width=".988" stroke-miterlimit="10" d="M328.7 919.8c0 9.2-7.4 16.6-16.6 16.6-9.2 0-16.6-7.4-16.6-16.6s7.4-16.6 16.6-16.6" fill="none"/><path fill="#DBD8D6" d="M359.2 873.5c-61.2-61.2-61.2-160.3 0-221.5L346 638.8c-68.5 68.5-68.5 179.5 0 248s179.5 68.5 248 0l-13.3-13.3c-61.2 61.2-160.3 61.2-221.5 0z"/><path fill="#E7E3E1" d="M346 638.8l13.2 13.3c61.2-61.2 160.3-61.2 221.5 0s61.2 160.3 0 221.5l13.3 13.3c68.5-68.5 68.5-179.5 0-248s-179.6-68.7-248-.1z"/><path fill="#1B1B1B" d="M507.2 725.5c20.6 20.6 20.6 54 0 74.6l73.4 73.4c61.2-61.2 61.2-160.3 0-221.5s-160.3-61.2-221.5 0l73.4 73.4c20.7-20.6 54.1-20.6 74.7.1z"/><path fill="#272727" d="M359.2 873.5c61.2 61.2 160.3 61.2 221.5 0L507.2 800c-20.6 20.6-54 20.6-74.6 0-20.6-20.6-20.6-54 0-74.6L359.2 652c-61.1 61.2-61.1 160.3 0 221.5z"/><path fill="#EE273E" d="M466.7 766c-1.8-1.8-1.8-4.6 0-6.4l-34.1-34.1c-20.6 20.6-20.6 54 0 74.6 20.6 20.6 54 20.6 74.6 0L473.1 766c-1.7 1.7-4.6 1.7-6.4 0z"/><path fill="#D82238" d="M507.2 725.5c-20.6-20.6-54-20.6-74.6 0l34.1 34.1c1.8-1.8 4.6-1.8 6.4 0s1.8 4.6 0 6.4l34.1 34.1c20.6-20.6 20.6-54.1 0-74.6z"/><path fill="#DBDBDC" d="M473.1 759.5c-1.8-1.8-4.6-1.8-6.4 0l6.4 6.4c1.8-1.7 1.8-4.6 0-6.4z"/><path fill="#F1F1F1" d="M466.7 766c1.8 1.8 4.6 1.8 6.4 0l-6.4-6.4c-1.7 1.7-1.7 4.6 0 6.4z"/><path fill="#F59D21" d="M520.2 864.2l-6.8-5.9 2.3-6.8 10.9 9.3z"/><path fill="#747575" d="M722.672 610.448l9.955 8.515-14.82 17.326-9.955-8.516z"/><path fill="#686868" d="M694.48 643.565l9.954 8.515-8.19 9.575-9.955-8.515z"/><path fill="#8F8F8F" d="M685.306 651.534l12.538 10.725-7.67 8.966-12.538-10.725z"/><path fill="#797979" d="M678.04 660.808l11.78 10.075-18.72 21.885-11.78-10.075z"/><path fill="#8D8D8D" d="M661.7 702l-10.1-8.7 7.7-10.5 11.8 10z"/><path fill="#C8C8C8" d="M651.712 693.5l9.955 8.515-94.445 110.414-9.955-8.516z"/><path fill="#969696" d="M556.148 802.934l12.16 10.4-10.01 11.703-12.16-10.4z"/><path fill="#C8C8C8" d="M541.92 811.006l20.67 17.68-31.85 37.235-20.67-17.68zM543.627 842.785l18.085 15.47-3.38 3.95-18.085-15.47z"/><path d="M708.042 613.752l23.557 20.15-18.2 21.277-23.558-20.15z"/><path fill="#222" d="M705.5 656.2L690.2 643l-.4-7.9 23.6 20.1z"/><circle fill="#DDDBDB" cx="677.9" cy="672.5" r="6"/></g></svg>